<mxfile host="Electron" agent="Mozilla/5.0 (Windows NT 10.0; Win64; x64) AppleWebKit/537.36 (KHTML, like Gecko) draw.io/24.7.17 Chrome/128.0.6613.36 Electron/32.0.1 Safari/537.36" version="24.7.17">
  <diagram id="C5RBs43oDa-KdzZeNtuy" name="Page-1">
    <mxGraphModel dx="1098" dy="1072" grid="1" gridSize="10" guides="1" tooltips="1" connect="1" arrows="1" fold="1" page="1" pageScale="1" pageWidth="827" pageHeight="1169" math="0" shadow="0">
      <root>
        <mxCell id="WIyWlLk6GJQsqaUBKTNV-0" />
        <mxCell id="WIyWlLk6GJQsqaUBKTNV-1" parent="WIyWlLk6GJQsqaUBKTNV-0" />
        <mxCell id="IGfxAkFm8eXObLf6aFfo-50" style="edgeStyle=orthogonalEdgeStyle;rounded=0;orthogonalLoop=1;jettySize=auto;html=1;exitX=0.75;exitY=0;exitDx=0;exitDy=0;entryX=0;entryY=0.5;entryDx=0;entryDy=0;endArrow=none;endFill=0;dashed=1;" edge="1" parent="WIyWlLk6GJQsqaUBKTNV-1" source="WIyWlLk6GJQsqaUBKTNV-7" target="IGfxAkFm8eXObLf6aFfo-49">
          <mxGeometry relative="1" as="geometry">
            <Array as="points">
              <mxPoint x="330" y="190" />
              <mxPoint x="370" y="190" />
              <mxPoint x="370" y="90" />
            </Array>
          </mxGeometry>
        </mxCell>
        <mxCell id="WIyWlLk6GJQsqaUBKTNV-3" value="Launch Game" style="rounded=1;whiteSpace=wrap;html=1;fontSize=12;glass=0;strokeWidth=1;shadow=0;" parent="WIyWlLk6GJQsqaUBKTNV-1" vertex="1">
          <mxGeometry x="240" y="130" width="120" height="40" as="geometry" />
        </mxCell>
        <mxCell id="IGfxAkFm8eXObLf6aFfo-20" style="edgeStyle=orthogonalEdgeStyle;rounded=0;orthogonalLoop=1;jettySize=auto;html=1;exitX=0;exitY=0.5;exitDx=0;exitDy=0;entryX=0;entryY=0;entryDx=0;entryDy=0;" edge="1" parent="WIyWlLk6GJQsqaUBKTNV-1" source="WIyWlLk6GJQsqaUBKTNV-7" target="IGfxAkFm8eXObLf6aFfo-19">
          <mxGeometry relative="1" as="geometry" />
        </mxCell>
        <mxCell id="IGfxAkFm8eXObLf6aFfo-21" value="Hit by Enemy" style="edgeLabel;html=1;align=center;verticalAlign=middle;resizable=0;points=[];" vertex="1" connectable="0" parent="IGfxAkFm8eXObLf6aFfo-20">
          <mxGeometry x="-0.2727" relative="1" as="geometry">
            <mxPoint x="40" y="-32" as="offset" />
          </mxGeometry>
        </mxCell>
        <mxCell id="IGfxAkFm8eXObLf6aFfo-29" style="edgeStyle=orthogonalEdgeStyle;rounded=0;orthogonalLoop=1;jettySize=auto;html=1;exitX=0;exitY=1;exitDx=0;exitDy=0;" edge="1" parent="WIyWlLk6GJQsqaUBKTNV-1" source="WIyWlLk6GJQsqaUBKTNV-7">
          <mxGeometry relative="1" as="geometry">
            <mxPoint x="160" y="350" as="targetPoint" />
          </mxGeometry>
        </mxCell>
        <mxCell id="WIyWlLk6GJQsqaUBKTNV-7" value="Collect Items/Navigate Maze" style="rounded=1;whiteSpace=wrap;html=1;fontSize=12;glass=0;strokeWidth=1;shadow=0;" parent="WIyWlLk6GJQsqaUBKTNV-1" vertex="1">
          <mxGeometry x="240" y="230" width="120" height="40" as="geometry" />
        </mxCell>
        <mxCell id="IGfxAkFm8eXObLf6aFfo-54" style="edgeStyle=orthogonalEdgeStyle;rounded=0;orthogonalLoop=1;jettySize=auto;html=1;exitX=0.75;exitY=0;exitDx=0;exitDy=0;entryX=0;entryY=0.75;entryDx=0;entryDy=0;endArrow=none;endFill=0;dashed=1;" edge="1" parent="WIyWlLk6GJQsqaUBKTNV-1" source="WIyWlLk6GJQsqaUBKTNV-12" target="IGfxAkFm8eXObLf6aFfo-53">
          <mxGeometry relative="1" as="geometry" />
        </mxCell>
        <mxCell id="WIyWlLk6GJQsqaUBKTNV-12" value="Apply Power-Up Effects" style="rounded=1;whiteSpace=wrap;html=1;fontSize=12;glass=0;strokeWidth=1;shadow=0;" parent="WIyWlLk6GJQsqaUBKTNV-1" vertex="1">
          <mxGeometry x="240" y="530" width="120" height="40" as="geometry" />
        </mxCell>
        <mxCell id="IGfxAkFm8eXObLf6aFfo-2" style="edgeStyle=orthogonalEdgeStyle;rounded=0;orthogonalLoop=1;jettySize=auto;html=1;exitX=1;exitY=0.5;exitDx=0;exitDy=0;exitPerimeter=0;entryX=0;entryY=0.5;entryDx=0;entryDy=0;" edge="1" parent="WIyWlLk6GJQsqaUBKTNV-1" source="IGfxAkFm8eXObLf6aFfo-0" target="WIyWlLk6GJQsqaUBKTNV-3">
          <mxGeometry relative="1" as="geometry" />
        </mxCell>
        <mxCell id="IGfxAkFm8eXObLf6aFfo-0" value="" style="strokeWidth=2;html=1;shape=mxgraph.flowchart.start_2;whiteSpace=wrap;" vertex="1" parent="WIyWlLk6GJQsqaUBKTNV-1">
          <mxGeometry x="90" y="140" width="20" height="20" as="geometry" />
        </mxCell>
        <mxCell id="IGfxAkFm8eXObLf6aFfo-6" style="edgeStyle=orthogonalEdgeStyle;rounded=0;orthogonalLoop=1;jettySize=auto;html=1;exitX=1;exitY=0.5;exitDx=0;exitDy=0;exitPerimeter=0;entryX=1;entryY=0.5;entryDx=0;entryDy=0;" edge="1" parent="WIyWlLk6GJQsqaUBKTNV-1" source="IGfxAkFm8eXObLf6aFfo-3" target="WIyWlLk6GJQsqaUBKTNV-7">
          <mxGeometry relative="1" as="geometry" />
        </mxCell>
        <mxCell id="IGfxAkFm8eXObLf6aFfo-7" value="No" style="edgeLabel;html=1;align=center;verticalAlign=middle;resizable=0;points=[];" vertex="1" connectable="0" parent="IGfxAkFm8eXObLf6aFfo-6">
          <mxGeometry x="-0.2947" y="-1" relative="1" as="geometry">
            <mxPoint x="9" y="37" as="offset" />
          </mxGeometry>
        </mxCell>
        <mxCell id="IGfxAkFm8eXObLf6aFfo-8" style="edgeStyle=orthogonalEdgeStyle;rounded=0;orthogonalLoop=1;jettySize=auto;html=1;exitX=0.5;exitY=1;exitDx=0;exitDy=0;exitPerimeter=0;entryX=0.5;entryY=0;entryDx=0;entryDy=0;" edge="1" parent="WIyWlLk6GJQsqaUBKTNV-1" source="IGfxAkFm8eXObLf6aFfo-3" target="WIyWlLk6GJQsqaUBKTNV-12">
          <mxGeometry relative="1" as="geometry" />
        </mxCell>
        <mxCell id="IGfxAkFm8eXObLf6aFfo-9" value="Yes" style="edgeLabel;html=1;align=center;verticalAlign=middle;resizable=0;points=[];" vertex="1" connectable="0" parent="IGfxAkFm8eXObLf6aFfo-8">
          <mxGeometry x="-0.1111" relative="1" as="geometry">
            <mxPoint x="10" as="offset" />
          </mxGeometry>
        </mxCell>
        <mxCell id="IGfxAkFm8eXObLf6aFfo-3" value="Collect a Power-Up?" style="strokeWidth=2;html=1;shape=mxgraph.flowchart.decision;whiteSpace=wrap;" vertex="1" parent="WIyWlLk6GJQsqaUBKTNV-1">
          <mxGeometry x="230" y="340" width="140" height="100" as="geometry" />
        </mxCell>
        <mxCell id="IGfxAkFm8eXObLf6aFfo-4" style="edgeStyle=orthogonalEdgeStyle;rounded=0;orthogonalLoop=1;jettySize=auto;html=1;exitX=0.5;exitY=1;exitDx=0;exitDy=0;entryX=0.5;entryY=0;entryDx=0;entryDy=0;" edge="1" parent="WIyWlLk6GJQsqaUBKTNV-1" source="WIyWlLk6GJQsqaUBKTNV-3" target="WIyWlLk6GJQsqaUBKTNV-7">
          <mxGeometry relative="1" as="geometry">
            <mxPoint x="120" y="210" as="sourcePoint" />
            <mxPoint x="250" y="210" as="targetPoint" />
          </mxGeometry>
        </mxCell>
        <mxCell id="IGfxAkFm8eXObLf6aFfo-5" style="edgeStyle=orthogonalEdgeStyle;rounded=0;orthogonalLoop=1;jettySize=auto;html=1;exitX=0.5;exitY=1;exitDx=0;exitDy=0;entryX=0.5;entryY=0;entryDx=0;entryDy=0;entryPerimeter=0;" edge="1" parent="WIyWlLk6GJQsqaUBKTNV-1" source="WIyWlLk6GJQsqaUBKTNV-7" target="IGfxAkFm8eXObLf6aFfo-3">
          <mxGeometry relative="1" as="geometry" />
        </mxCell>
        <mxCell id="IGfxAkFm8eXObLf6aFfo-13" style="edgeStyle=orthogonalEdgeStyle;rounded=0;orthogonalLoop=1;jettySize=auto;html=1;exitX=0.5;exitY=0;exitDx=0;exitDy=0;exitPerimeter=0;" edge="1" parent="WIyWlLk6GJQsqaUBKTNV-1" source="IGfxAkFm8eXObLf6aFfo-11">
          <mxGeometry relative="1" as="geometry">
            <mxPoint x="520" y="410" as="targetPoint" />
          </mxGeometry>
        </mxCell>
        <mxCell id="IGfxAkFm8eXObLf6aFfo-16" value="Yes" style="edgeLabel;html=1;align=center;verticalAlign=middle;resizable=0;points=[];" vertex="1" connectable="0" parent="IGfxAkFm8eXObLf6aFfo-13">
          <mxGeometry x="0.1267" y="-2" relative="1" as="geometry">
            <mxPoint x="8" y="21" as="offset" />
          </mxGeometry>
        </mxCell>
        <mxCell id="IGfxAkFm8eXObLf6aFfo-25" style="edgeStyle=orthogonalEdgeStyle;rounded=0;orthogonalLoop=1;jettySize=auto;html=1;exitX=1;exitY=0.5;exitDx=0;exitDy=0;exitPerimeter=0;entryX=1;entryY=0;entryDx=0;entryDy=0;" edge="1" parent="WIyWlLk6GJQsqaUBKTNV-1" source="IGfxAkFm8eXObLf6aFfo-11" target="WIyWlLk6GJQsqaUBKTNV-7">
          <mxGeometry relative="1" as="geometry" />
        </mxCell>
        <mxCell id="IGfxAkFm8eXObLf6aFfo-26" value="No" style="edgeLabel;html=1;align=center;verticalAlign=middle;resizable=0;points=[];" vertex="1" connectable="0" parent="IGfxAkFm8eXObLf6aFfo-25">
          <mxGeometry x="-0.7683" y="-2" relative="1" as="geometry">
            <mxPoint x="8" y="3" as="offset" />
          </mxGeometry>
        </mxCell>
        <mxCell id="IGfxAkFm8eXObLf6aFfo-11" value="Eat Enemy?" style="strokeWidth=2;html=1;shape=mxgraph.flowchart.decision;whiteSpace=wrap;" vertex="1" parent="WIyWlLk6GJQsqaUBKTNV-1">
          <mxGeometry x="450" y="500" width="140" height="100" as="geometry" />
        </mxCell>
        <mxCell id="IGfxAkFm8eXObLf6aFfo-12" style="edgeStyle=orthogonalEdgeStyle;rounded=0;orthogonalLoop=1;jettySize=auto;html=1;exitX=1;exitY=0.5;exitDx=0;exitDy=0;entryX=0;entryY=0.5;entryDx=0;entryDy=0;entryPerimeter=0;" edge="1" parent="WIyWlLk6GJQsqaUBKTNV-1" source="WIyWlLk6GJQsqaUBKTNV-12" target="IGfxAkFm8eXObLf6aFfo-11">
          <mxGeometry relative="1" as="geometry" />
        </mxCell>
        <mxCell id="IGfxAkFm8eXObLf6aFfo-24" style="edgeStyle=orthogonalEdgeStyle;rounded=0;orthogonalLoop=1;jettySize=auto;html=1;exitX=0.5;exitY=0;exitDx=0;exitDy=0;entryX=1;entryY=0.25;entryDx=0;entryDy=0;" edge="1" parent="WIyWlLk6GJQsqaUBKTNV-1" source="IGfxAkFm8eXObLf6aFfo-14" target="WIyWlLk6GJQsqaUBKTNV-7">
          <mxGeometry relative="1" as="geometry" />
        </mxCell>
        <mxCell id="IGfxAkFm8eXObLf6aFfo-14" value="Lock Away Enemy" style="rounded=1;whiteSpace=wrap;html=1;fontSize=12;glass=0;strokeWidth=1;shadow=0;" vertex="1" parent="WIyWlLk6GJQsqaUBKTNV-1">
          <mxGeometry x="460" y="370" width="120" height="40" as="geometry" />
        </mxCell>
        <mxCell id="IGfxAkFm8eXObLf6aFfo-37" style="edgeStyle=orthogonalEdgeStyle;rounded=0;orthogonalLoop=1;jettySize=auto;html=1;exitX=0.5;exitY=1;exitDx=0;exitDy=0;" edge="1" parent="WIyWlLk6GJQsqaUBKTNV-1" source="IGfxAkFm8eXObLf6aFfo-19">
          <mxGeometry relative="1" as="geometry">
            <mxPoint x="120" y="830" as="targetPoint" />
          </mxGeometry>
        </mxCell>
        <mxCell id="IGfxAkFm8eXObLf6aFfo-46" style="edgeStyle=orthogonalEdgeStyle;rounded=0;orthogonalLoop=1;jettySize=auto;html=1;exitX=1;exitY=0.25;exitDx=0;exitDy=0;entryX=0;entryY=0.5;entryDx=0;entryDy=0;endArrow=none;endFill=0;dashed=1;" edge="1" parent="WIyWlLk6GJQsqaUBKTNV-1" source="IGfxAkFm8eXObLf6aFfo-19" target="IGfxAkFm8eXObLf6aFfo-45">
          <mxGeometry relative="1" as="geometry" />
        </mxCell>
        <mxCell id="IGfxAkFm8eXObLf6aFfo-48" style="edgeStyle=orthogonalEdgeStyle;rounded=0;orthogonalLoop=1;jettySize=auto;html=1;exitX=1;exitY=0.75;exitDx=0;exitDy=0;entryX=0;entryY=0.25;entryDx=0;entryDy=0;endArrow=none;endFill=0;dashed=1;" edge="1" parent="WIyWlLk6GJQsqaUBKTNV-1" source="IGfxAkFm8eXObLf6aFfo-19" target="IGfxAkFm8eXObLf6aFfo-47">
          <mxGeometry relative="1" as="geometry" />
        </mxCell>
        <mxCell id="IGfxAkFm8eXObLf6aFfo-19" value="End Game/Record Scores" style="rounded=1;whiteSpace=wrap;html=1;fontSize=12;glass=0;strokeWidth=1;shadow=0;" vertex="1" parent="WIyWlLk6GJQsqaUBKTNV-1">
          <mxGeometry x="60" y="680" width="120" height="40" as="geometry" />
        </mxCell>
        <mxCell id="IGfxAkFm8eXObLf6aFfo-31" style="edgeStyle=orthogonalEdgeStyle;rounded=0;orthogonalLoop=1;jettySize=auto;html=1;exitX=0.5;exitY=1;exitDx=0;exitDy=0;entryX=0.75;entryY=0;entryDx=0;entryDy=0;" edge="1" parent="WIyWlLk6GJQsqaUBKTNV-1" source="IGfxAkFm8eXObLf6aFfo-30" target="IGfxAkFm8eXObLf6aFfo-19">
          <mxGeometry relative="1" as="geometry" />
        </mxCell>
        <mxCell id="IGfxAkFm8eXObLf6aFfo-56" style="edgeStyle=orthogonalEdgeStyle;rounded=0;orthogonalLoop=1;jettySize=auto;html=1;exitX=0;exitY=1;exitDx=0;exitDy=0;entryX=0.5;entryY=0;entryDx=0;entryDy=0;endArrow=none;endFill=0;dashed=1;" edge="1" parent="WIyWlLk6GJQsqaUBKTNV-1" source="IGfxAkFm8eXObLf6aFfo-30" target="IGfxAkFm8eXObLf6aFfo-55">
          <mxGeometry relative="1" as="geometry" />
        </mxCell>
        <mxCell id="IGfxAkFm8eXObLf6aFfo-30" value="Pause Game" style="rounded=1;whiteSpace=wrap;html=1;fontSize=12;glass=0;strokeWidth=1;shadow=0;" vertex="1" parent="WIyWlLk6GJQsqaUBKTNV-1">
          <mxGeometry x="100" y="350" width="120" height="40" as="geometry" />
        </mxCell>
        <mxCell id="IGfxAkFm8eXObLf6aFfo-32" value="&lt;span style=&quot;color: rgb(240, 240, 240); font-family: Helvetica; font-size: 11px; font-style: normal; font-variant-ligatures: normal; font-variant-caps: normal; font-weight: 400; letter-spacing: normal; orphans: 2; text-align: center; text-indent: 0px; text-transform: none; widows: 2; word-spacing: 0px; -webkit-text-stroke-width: 0px; white-space: nowrap; background-color: rgb(24, 20, 29); text-decoration-thickness: initial; text-decoration-style: initial; text-decoration-color: initial; display: inline !important; float: none;&quot;&gt;Game Quit&lt;/span&gt;" style="text;whiteSpace=wrap;html=1;" vertex="1" parent="WIyWlLk6GJQsqaUBKTNV-1">
          <mxGeometry x="100" y="470" width="100" height="40" as="geometry" />
        </mxCell>
        <mxCell id="IGfxAkFm8eXObLf6aFfo-34" style="edgeStyle=orthogonalEdgeStyle;rounded=0;orthogonalLoop=1;jettySize=auto;html=1;exitX=0.25;exitY=0;exitDx=0;exitDy=0;entryX=0.892;entryY=1.025;entryDx=0;entryDy=0;entryPerimeter=0;" edge="1" parent="WIyWlLk6GJQsqaUBKTNV-1" source="WIyWlLk6GJQsqaUBKTNV-12" target="IGfxAkFm8eXObLf6aFfo-30">
          <mxGeometry relative="1" as="geometry" />
        </mxCell>
        <mxCell id="IGfxAkFm8eXObLf6aFfo-35" value="Game Paused" style="edgeLabel;html=1;align=center;verticalAlign=middle;resizable=0;points=[];" vertex="1" connectable="0" parent="IGfxAkFm8eXObLf6aFfo-34">
          <mxGeometry x="-0.1584" y="-2" relative="1" as="geometry">
            <mxPoint x="-25" y="12" as="offset" />
          </mxGeometry>
        </mxCell>
        <mxCell id="IGfxAkFm8eXObLf6aFfo-36" value="Game Paused" style="edgeLabel;html=1;align=center;verticalAlign=middle;resizable=0;points=[];" vertex="1" connectable="0" parent="WIyWlLk6GJQsqaUBKTNV-1">
          <mxGeometry x="200" y="300" as="geometry" />
        </mxCell>
        <mxCell id="IGfxAkFm8eXObLf6aFfo-40" value="" style="ellipse;shape=doubleEllipse;whiteSpace=wrap;html=1;" vertex="1" parent="WIyWlLk6GJQsqaUBKTNV-1">
          <mxGeometry x="100" y="830" width="40" height="40" as="geometry" />
        </mxCell>
        <mxCell id="IGfxAkFm8eXObLf6aFfo-45" value="&quot;End Game&quot; Use Case" style="text;html=1;align=center;verticalAlign=middle;whiteSpace=wrap;rounded=0;strokeColor=default;dashed=1;" vertex="1" parent="WIyWlLk6GJQsqaUBKTNV-1">
          <mxGeometry x="250" y="660" width="100" height="40" as="geometry" />
        </mxCell>
        <mxCell id="IGfxAkFm8eXObLf6aFfo-47" value="&quot;Record High Scores from game session&quot; Use Case" style="text;html=1;align=center;verticalAlign=middle;whiteSpace=wrap;rounded=0;strokeColor=default;dashed=1;" vertex="1" parent="WIyWlLk6GJQsqaUBKTNV-1">
          <mxGeometry x="250" y="710" width="110" height="60" as="geometry" />
        </mxCell>
        <mxCell id="IGfxAkFm8eXObLf6aFfo-49" value="&quot;Navigate Through The Maze&quot; Use Case" style="text;html=1;align=center;verticalAlign=middle;whiteSpace=wrap;rounded=0;strokeColor=default;dashed=1;" vertex="1" parent="WIyWlLk6GJQsqaUBKTNV-1">
          <mxGeometry x="414" y="60" width="110" height="60" as="geometry" />
        </mxCell>
        <mxCell id="IGfxAkFm8eXObLf6aFfo-52" style="edgeStyle=orthogonalEdgeStyle;rounded=0;orthogonalLoop=1;jettySize=auto;html=1;exitX=0;exitY=0.5;exitDx=0;exitDy=0;endArrow=none;endFill=0;dashed=1;" edge="1" parent="WIyWlLk6GJQsqaUBKTNV-1" source="IGfxAkFm8eXObLf6aFfo-51">
          <mxGeometry relative="1" as="geometry">
            <mxPoint x="370" y="170" as="targetPoint" />
          </mxGeometry>
        </mxCell>
        <mxCell id="IGfxAkFm8eXObLf6aFfo-51" value="&quot;Collect Items&quot; Use Case" style="text;html=1;align=center;verticalAlign=middle;whiteSpace=wrap;rounded=0;strokeColor=default;dashed=1;" vertex="1" parent="WIyWlLk6GJQsqaUBKTNV-1">
          <mxGeometry x="414" y="130" width="110" height="60" as="geometry" />
        </mxCell>
        <mxCell id="IGfxAkFm8eXObLf6aFfo-53" value="&quot;Grab Power-Ups&quot; Use Case" style="text;html=1;align=center;verticalAlign=middle;whiteSpace=wrap;rounded=0;strokeColor=default;dashed=1;" vertex="1" parent="WIyWlLk6GJQsqaUBKTNV-1">
          <mxGeometry x="370" y="430" width="110" height="60" as="geometry" />
        </mxCell>
        <mxCell id="IGfxAkFm8eXObLf6aFfo-55" value="&quot;Pause Game&quot; Use Case" style="text;html=1;align=center;verticalAlign=middle;whiteSpace=wrap;rounded=0;strokeColor=default;dashed=1;" vertex="1" parent="WIyWlLk6GJQsqaUBKTNV-1">
          <mxGeometry x="70" y="410" width="70" height="60" as="geometry" />
        </mxCell>
      </root>
    </mxGraphModel>
  </diagram>
</mxfile>
